<svg width="32" height="32" viewBox="0 0 32 32" fill="none" xmlns="http://www.w3.org/2000/svg">
  <rect width="32" height="32" rx="8" fill="#24292F"/>
  <path fill-rule="evenodd" clip-rule="evenodd" d="M16 5.3C10.1 5.3 5.3 10.1 5.3 16C5.3 20.7 8.4 24.8 12.6 26.4C13.1 26.5 13.3 26.2 13.3 25.9V24.1C10.3 24.7 9.7 22.8 9.7 22.8C9.2 21.6 8.5 21.3 8.5 21.3C7.5 20.6 8.6 20.6 8.6 20.6C9.7 20.7 10.2 21.7 10.2 21.7C11.2 23.4 12.8 22.9 13.3 22.7C13.4 22 13.7 21.5 14 21.2C11.6 20.9 9.1 20 9.1 15.9C9.1 14.7 9.5 13.7 10.2 12.9C10.1 12.6 9.7 11.5 10.3 10C10.3 10 11.2 9.7 13.3 11.1C14.2 10.9 15.1 10.8 16 10.8C16.9 10.8 17.8 10.9 18.7 11.1C20.8 9.7 21.7 10 21.7 10C22.3 11.5 21.9 12.6 21.8 12.9C22.5 13.7 22.9 14.7 22.9 15.9C22.9 20 20.4 20.9 18 21.2C18.4 21.5 18.8 22.2 18.8 23.3V25.9C18.8 26.2 19 26.5 19.5 26.4C23.7 24.8 26.7 20.7 26.7 16C26.7 10.1 21.9 5.3 16 5.3Z" fill="white"/>
</svg>
